<svg width="120" height="32" viewBox="0 0 120 32" fill="none" xmlns="http://www.w3.org/2000/svg">
<g clip-path="url(#clip0_2001_643)">
<path d="M13.4232 15.66L20.8152 21.0144L13.4232 25.9416L6.0312 21.0144L13.4232 8.6976L24.1608 17.8968L13.4232 0L0 22.3704L13.4232 31.32L26.8464 22.3704L13.4232 15.66Z" fill="white"/>
<path d="M55.0177 20.0641C54.9361 19.9945 54.8953 19.8409 54.8953 19.6081V16.4161C54.8953 15.7609 54.7753 15.2137 54.5353 14.7745C54.2953 14.3353 53.9761 13.9849 53.5801 13.7209C53.1841 13.4569 52.7305 13.2673 52.2193 13.1497C51.7105 13.0321 51.1921 12.9745 50.6665 12.9745C50.1985 12.9745 49.7305 13.0249 49.2625 13.1233C48.7945 13.2217 48.3673 13.3873 47.9809 13.6153C47.5945 13.8433 47.2729 14.1457 47.0161 14.5201C46.7593 14.8945 46.6009 15.3457 46.5433 15.8713L48.0529 16.0825C48.0985 15.7321 48.1993 15.4441 48.3505 15.2233C48.5017 15.0001 48.6937 14.8249 48.9217 14.6977C49.1497 14.5681 49.4137 14.4817 49.7113 14.4337C50.0089 14.3881 50.3281 14.3641 50.6665 14.3641C51.5089 14.3641 52.1425 14.5057 52.5697 14.7841C52.9969 15.0649 53.2225 15.5377 53.2441 16.2049C53.2561 16.4497 53.0929 16.6081 52.7521 16.6777C52.4137 16.7473 51.9817 16.7929 51.4633 16.8097C50.9425 16.8265 50.3809 16.8457 49.7785 16.8625C49.1761 16.8793 48.6145 16.9657 48.0937 17.1169C47.5729 17.2681 47.1409 17.5105 46.7953 17.8441C46.4497 18.1777 46.2769 18.6649 46.2769 19.3081C46.2769 19.7065 46.3729 20.0593 46.5673 20.3689C46.7593 20.6785 47.0137 20.9401 47.3305 21.1489C47.6473 21.3601 48.0097 21.5161 48.4177 21.6217C48.8281 21.7273 49.2481 21.7801 49.6801 21.7801C50.0545 21.7801 50.4289 21.7369 50.8033 21.6481C51.1777 21.5593 51.5257 21.4297 51.8473 21.2545C52.1689 21.0793 52.4521 20.8561 52.6969 20.5873C52.9417 20.3185 53.1241 20.0017 53.2417 19.6393V20.4121C53.2417 20.7985 53.3737 21.1249 53.6353 21.3937C53.8993 21.6625 54.2521 21.7969 54.6961 21.7969H55.8193V20.1649H55.4161C55.2289 20.1649 55.0945 20.1289 55.0129 20.0593L55.0177 20.0641ZM53.2465 18.6961C53.2465 19.0009 53.1505 19.2721 52.9561 19.5121C52.7641 19.7521 52.5169 19.9537 52.2193 20.1169C51.9217 20.2801 51.5857 20.4073 51.2113 20.4937C50.8369 20.5825 50.4673 20.6257 50.1049 20.6257C49.8241 20.6257 49.5529 20.5993 49.2889 20.5465C49.0249 20.4937 48.7969 20.4121 48.6049 20.3017C48.4129 20.1913 48.2569 20.0497 48.1393 19.8817C48.0217 19.7113 47.9641 19.5097 47.9641 19.2769C47.9641 18.9265 48.0601 18.6601 48.2545 18.4777C48.4465 18.2977 48.6961 18.1657 49.0009 18.0841C49.3057 18.0025 49.6489 17.9545 50.0353 17.9425C50.4217 17.9305 50.8105 17.9185 51.2017 17.9065C51.5929 17.8945 51.9697 17.8657 52.3345 17.8177C52.6969 17.7721 53.0017 17.6785 53.2465 17.5369V18.6937V18.6961Z" fill="white"/>
<path d="M66.9744 12.8881C66.5184 12.8881 66.1128 12.9769 65.7552 13.1521C65.3976 13.3273 65.0952 13.5625 64.8432 13.8529C64.5912 14.1457 64.3896 14.4817 64.2384 14.8609C64.0872 15.2401 63.9936 15.6361 63.9576 16.0441H63.9216C63.9456 15.8449 63.9528 15.6265 63.948 15.3865C63.9432 15.1465 63.9096 14.9281 63.852 14.7289C63.7824 14.4961 63.6816 14.2681 63.5544 14.0449C63.4248 13.8217 63.2592 13.6273 63.0552 13.4569C62.8512 13.2865 62.604 13.1497 62.3184 13.0441C62.0328 12.9385 61.6896 12.8857 61.2912 12.8857C60.7656 12.8857 60.2712 13.0225 59.808 13.2985C59.3448 13.5745 58.9632 14.0089 58.6584 14.6065C58.5648 14.7817 58.4856 14.9857 58.4208 15.2209C58.404 15.2785 58.392 15.3313 58.3776 15.3865V13.0297H56.6592V21.8017H58.3776V18.4681C58.3776 17.6857 58.4664 17.0449 58.6416 16.5481C58.8168 16.0513 59.0304 15.6601 59.2824 15.3721C59.5344 15.0865 59.796 14.8897 60.072 14.7841C60.3456 14.6785 60.5832 14.6257 60.7824 14.6257C61.308 14.6257 61.704 14.8393 61.9656 15.2665C62.2296 15.6937 62.3592 16.3633 62.3592 17.2753V21.8017H64.0776V18.4681C64.0776 17.6857 64.1592 17.0449 64.3224 16.5481C64.4856 16.0513 64.6848 15.6601 64.92 15.3721C65.1552 15.0841 65.4048 14.8897 65.6736 14.7841C65.9424 14.6785 66.1872 14.6257 66.4104 14.6257C66.936 14.6257 67.344 14.8513 67.6296 15.3001C67.9152 15.7513 68.0592 16.4089 68.0592 17.2729V21.7993H69.7776V16.9033C69.7776 15.6409 69.5616 14.6545 69.1272 13.9465C68.6952 13.2385 67.9752 12.8857 66.9696 12.8857L66.9744 12.8881Z" fill="white"/>
<path d="M78.7224 14.0376C78.3024 13.6704 77.808 13.392 77.2392 13.2048C76.6728 13.0176 76.0656 12.924 75.4224 12.924C74.7792 12.924 74.1648 13.0152 73.5792 13.1952C72.9936 13.3776 72.4824 13.6536 72.0432 14.028C71.604 14.4024 71.256 14.8704 70.9992 15.432C70.7424 15.9936 70.6128 16.6536 70.6128 17.4144C70.6128 18.1752 70.7424 18.8352 70.9992 19.3968C71.256 19.9584 71.604 20.4264 72.0432 20.8008C72.4824 21.1752 72.9936 21.4536 73.5792 21.6336C74.1648 21.8136 74.7792 21.9048 75.4224 21.9048C75.936 21.9048 76.4304 21.8496 76.9056 21.7392C77.3784 21.6288 77.8152 21.4584 78.2136 21.2304C78.612 21.0024 78.96 20.7024 79.2576 20.3256C79.5552 19.9512 79.7856 19.5 79.9512 18.9744L78.372 18.7632C78.1272 19.4184 77.748 19.8696 77.2392 20.1144C76.7304 20.3592 76.1376 20.4888 75.4584 20.5008C74.652 20.5128 73.9728 20.3016 73.4232 19.8696C72.8736 19.4376 72.5352 18.7824 72.4056 17.904H80.0544C80.0784 17.7864 80.0904 17.7072 80.0904 17.6664V17.412C80.0904 16.6512 79.968 15.9912 79.7208 15.4296C79.476 14.868 79.1424 14.4024 78.72 14.0352L78.7224 14.0376ZM73.932 16.8528H72.4488C72.4824 16.656 72.5256 16.4664 72.5904 16.2912C72.7608 15.8352 72.9912 15.4584 73.284 15.1584C73.5768 14.8608 73.9152 14.6376 74.3016 14.4912C74.688 14.3448 75.0744 14.2728 75.4584 14.2728C76.2648 14.2848 76.9344 14.4912 77.4672 14.8944C78 15.2976 78.3288 15.9504 78.4584 16.8504H73.932V16.8528Z" fill="white"/>
<path d="M86.7842 13.0294H83.2586C82.4522 13.0294 81.8594 13.2214 81.4874 13.6078C81.113 13.9942 80.9258 14.5846 80.9258 15.379V21.8014H82.6442V15.9766C82.6442 15.6718 82.6586 15.4318 82.6874 15.2566C82.7162 15.0814 82.7762 14.9494 82.8626 14.863C82.9514 14.7742 83.069 14.719 83.2226 14.6974C83.3738 14.6734 83.573 14.6614 83.8202 14.6614L86.7842 14.6446V13.0294Z" fill="white"/>
<path d="M94.8889 14.0376C94.4665 13.6704 93.9745 13.392 93.4057 13.2048C92.8393 13.0176 92.2321 12.924 91.5889 12.924C90.9457 12.924 90.3313 13.0152 89.7457 13.1952C89.1601 13.3776 88.6489 13.6536 88.2097 14.028C87.7705 14.4024 87.4225 14.8704 87.1657 15.432C86.9089 15.9936 86.7793 16.6536 86.7793 17.4144C86.7793 18.1752 86.9089 18.8352 87.1657 19.3968C87.4225 19.9584 87.7705 20.4264 88.2097 20.8008C88.6489 21.1752 89.1601 21.4536 89.7457 21.6336C90.3313 21.8136 90.9433 21.9048 91.5889 21.9048C92.1025 21.9048 92.5969 21.8496 93.0721 21.7392C93.5473 21.6288 93.9817 21.4584 94.3801 21.2304C94.7785 21.0024 95.1265 20.7024 95.4241 20.3256C95.7217 19.9512 95.9521 19.5 96.1177 18.9744L94.5385 18.7632C94.2937 19.4184 93.9145 19.8696 93.4057 20.1144C92.8969 20.3592 92.3041 20.4888 91.6249 20.5008C90.8185 20.5128 90.1393 20.3016 89.5897 19.8696C89.0401 19.4376 88.7017 18.7824 88.5721 17.904H96.2209C96.2449 17.7864 96.2569 17.7072 96.2569 17.6664V17.412C96.2569 16.6512 96.1345 15.9912 95.8897 15.4296C95.6449 14.868 95.3113 14.4024 94.8889 14.0352V14.0376ZM94.2049 16.8528H88.6153C88.6489 16.656 88.6921 16.4664 88.7569 16.2912C88.9273 15.8352 89.1577 15.4584 89.4505 15.1584C89.7433 14.8584 90.0817 14.6376 90.4681 14.4912C90.8545 14.3448 91.2409 14.2728 91.6249 14.2728C92.4313 14.2848 93.1009 14.4912 93.6337 14.8944C94.1665 15.2976 94.4953 15.9504 94.6249 16.8504H94.2049V16.8528Z" fill="white"/>
<path d="M103.491 16.2745C103.491 17.0929 103.399 17.7577 103.219 18.2665C103.039 18.7753 102.819 19.1689 102.562 19.4497C102.305 19.7305 102.036 19.9201 101.755 20.0209C101.475 20.1193 101.242 20.1697 101.055 20.1697C100.342 20.1697 99.8065 19.9537 99.4489 19.5193C99.0913 19.0873 98.9137 18.4033 98.9137 17.4673V12.9937H97.1953V17.4673C97.1953 18.0409 97.2457 18.5953 97.3441 19.1329C97.4425 19.6705 97.6153 20.1457 97.8625 20.5537C98.1073 20.9641 98.4409 21.2905 98.8633 21.5353C99.2857 21.7801 99.8113 21.9049 100.443 21.9049C100.911 21.9049 101.323 21.8257 101.679 21.6673C102.036 21.5089 102.341 21.2929 102.6 21.0169C102.857 20.7433 103.068 20.4193 103.231 20.0521C103.339 19.8097 103.421 19.5553 103.495 19.2961V21.7633H105.214V12.9913H103.495V16.2721L103.491 16.2745Z" fill="white"/>
<path d="M119.352 13.9489C118.92 13.2409 118.2 12.8881 117.195 12.8881C116.739 12.8881 116.333 12.9769 115.975 13.1521C115.618 13.3273 115.315 13.5625 115.063 13.8529C114.811 14.1457 114.61 14.4817 114.459 14.8609C114.307 15.2401 114.214 15.6361 114.178 16.0441H114.142C114.166 15.8449 114.173 15.6265 114.168 15.3865C114.161 15.1465 114.13 14.9281 114.072 14.7289C114.003 14.4961 113.902 14.2681 113.775 14.0449C113.645 13.8217 113.479 13.6273 113.275 13.4569C113.071 13.2865 112.824 13.1497 112.539 13.0441C112.253 12.9385 111.91 12.8857 111.511 12.8857C110.986 12.8857 110.491 13.0225 110.028 13.2985C109.565 13.5745 109.183 14.0089 108.879 14.6065C108.785 14.7817 108.706 14.9857 108.641 15.2209C108.624 15.2785 108.612 15.3313 108.598 15.3865V13.0273H106.879V21.7993H108.598V18.4657C108.598 17.6833 108.687 17.0425 108.862 16.5457C109.037 16.0489 109.251 15.6577 109.503 15.3697C109.755 15.0841 110.016 14.8873 110.292 14.7817C110.566 14.6761 110.803 14.6233 111.003 14.6233C111.528 14.6233 111.924 14.8369 112.186 15.2641C112.45 15.6913 112.579 16.3609 112.579 17.2729V21.7993H114.298V18.4657C114.298 17.6833 114.379 17.0425 114.543 16.5457C114.706 16.0489 114.905 15.6577 115.14 15.3697C115.373 15.0841 115.625 14.8873 115.894 14.7817C116.163 14.6761 116.407 14.6233 116.631 14.6233C117.156 14.6233 117.564 14.8489 117.85 15.2977C118.135 15.7489 118.279 16.4065 118.279 17.2705V21.7969H119.998V16.9009C119.998 15.6385 119.782 14.6521 119.35 13.9441L119.352 13.9489Z" fill="white"/>
<path d="M44.2558 15.4152H40.4663V16.8024H43.2335C42.7703 18.8712 41.0807 20.4144 39.0647 20.4144C36.6935 20.4144 34.7639 18.2832 34.7639 15.6624C34.7639 13.0416 36.6935 10.9104 39.0647 10.9104C40.9295 10.9104 42.5159 12.2304 43.1111 14.0664L44.6879 13.4448C43.8263 11.0808 41.6375 9.39844 39.0647 9.39844C35.7407 9.39844 33.0479 12.204 33.0479 15.6624C33.0479 19.1208 35.7431 21.9264 39.0647 21.9264C40.9703 21.9264 42.6623 21 43.7639 19.56V21.804H45.4487V16.6272C45.4487 16.2528 45.3551 15.9576 45.1679 15.7416C44.9807 15.5256 44.6758 15.4176 44.2558 15.4176V15.4152Z" fill="white"/>
</g>
<defs>
<clipPath id="clip0_2001_643">
<rect width="120" height="31.32" fill="white"/>
</clipPath>
</defs>
</svg>
